<mxfile host="app.diagrams.net" agent="Mozilla/5.0 (X11; Linux x86_64; rv:138.0) Gecko/20100101 Firefox/138.0" version="27.1.1">
  <diagram name="Page-1" id="k3R6pr4vfikmX7Mmz7Pc">
    <mxGraphModel dx="1831" dy="1875" grid="1" gridSize="10" guides="1" tooltips="1" connect="1" arrows="1" fold="1" page="1" pageScale="1" pageWidth="850" pageHeight="1100" math="0" shadow="0">
      <root>
        <mxCell id="0" />
        <mxCell id="1" parent="0" />
        <mxCell id="hkL5dqAmk8bhZtvmWh6s-4" style="edgeStyle=orthogonalEdgeStyle;rounded=0;orthogonalLoop=1;jettySize=auto;html=1;exitX=0.5;exitY=1;exitDx=0;exitDy=0;entryX=0.541;entryY=0.014;entryDx=0;entryDy=0;entryPerimeter=0;" edge="1" parent="1" source="hkL5dqAmk8bhZtvmWh6s-27" target="hkL5dqAmk8bhZtvmWh6s-13">
          <mxGeometry relative="1" as="geometry">
            <mxPoint x="455" y="-920" as="targetPoint" />
            <mxPoint x="455" y="-1020" as="sourcePoint" />
          </mxGeometry>
        </mxCell>
        <mxCell id="hkL5dqAmk8bhZtvmWh6s-6" style="edgeStyle=orthogonalEdgeStyle;rounded=0;orthogonalLoop=1;jettySize=auto;html=1;" edge="1" parent="1">
          <mxGeometry relative="1" as="geometry">
            <mxPoint x="452.5" y="-750" as="targetPoint" />
            <mxPoint x="452.5" y="-785" as="sourcePoint" />
          </mxGeometry>
        </mxCell>
        <mxCell id="hkL5dqAmk8bhZtvmWh6s-11" style="edgeStyle=orthogonalEdgeStyle;rounded=0;orthogonalLoop=1;jettySize=auto;html=1;" edge="1" parent="1" target="hkL5dqAmk8bhZtvmWh6s-12">
          <mxGeometry relative="1" as="geometry">
            <mxPoint x="459.25" y="-480" as="targetPoint" />
            <mxPoint x="459.25" y="-560" as="sourcePoint" />
          </mxGeometry>
        </mxCell>
        <mxCell id="hkL5dqAmk8bhZtvmWh6s-19" style="edgeStyle=orthogonalEdgeStyle;rounded=0;orthogonalLoop=1;jettySize=auto;html=1;" edge="1" parent="1" source="hkL5dqAmk8bhZtvmWh6s-12">
          <mxGeometry relative="1" as="geometry">
            <mxPoint x="313" y="-430" as="targetPoint" />
          </mxGeometry>
        </mxCell>
        <mxCell id="hkL5dqAmk8bhZtvmWh6s-25" value="WHITE" style="edgeLabel;html=1;align=center;verticalAlign=middle;resizable=0;points=[];" vertex="1" connectable="0" parent="hkL5dqAmk8bhZtvmWh6s-19">
          <mxGeometry x="-0.2486" y="1" relative="1" as="geometry">
            <mxPoint as="offset" />
          </mxGeometry>
        </mxCell>
        <mxCell id="hkL5dqAmk8bhZtvmWh6s-20" style="edgeStyle=orthogonalEdgeStyle;rounded=0;orthogonalLoop=1;jettySize=auto;html=1;" edge="1" parent="1" source="hkL5dqAmk8bhZtvmWh6s-12">
          <mxGeometry relative="1" as="geometry">
            <mxPoint x="616.75" y="-430" as="targetPoint" />
          </mxGeometry>
        </mxCell>
        <mxCell id="hkL5dqAmk8bhZtvmWh6s-26" value="BLACK" style="edgeLabel;html=1;align=center;verticalAlign=middle;resizable=0;points=[];" vertex="1" connectable="0" parent="hkL5dqAmk8bhZtvmWh6s-20">
          <mxGeometry x="-0.4702" y="3" relative="1" as="geometry">
            <mxPoint as="offset" />
          </mxGeometry>
        </mxCell>
        <mxCell id="hkL5dqAmk8bhZtvmWh6s-12" value="side_to_move" style="rhombus;whiteSpace=wrap;html=1;" vertex="1" parent="1">
          <mxGeometry x="419.25" y="-520" width="80" height="80" as="geometry" />
        </mxCell>
        <mxCell id="hkL5dqAmk8bhZtvmWh6s-13" value="apply_move_on_board()" style="shape=trapezoid;perimeter=trapezoidPerimeter;whiteSpace=wrap;html=1;fixedSize=1;" vertex="1" parent="1">
          <mxGeometry x="340" y="-850" width="212.5" height="70" as="geometry" />
        </mxCell>
        <mxCell id="hkL5dqAmk8bhZtvmWh6s-18" style="edgeStyle=orthogonalEdgeStyle;rounded=0;orthogonalLoop=1;jettySize=auto;html=1;" edge="1" parent="1" source="hkL5dqAmk8bhZtvmWh6s-16" target="hkL5dqAmk8bhZtvmWh6s-17">
          <mxGeometry relative="1" as="geometry" />
        </mxCell>
        <mxCell id="hkL5dqAmk8bhZtvmWh6s-16" value="game_state_castrling_update()" style="shape=trapezoid;perimeter=trapezoidPerimeter;whiteSpace=wrap;html=1;fixedSize=1;" vertex="1" parent="1">
          <mxGeometry x="346.25" y="-750" width="212.5" height="70" as="geometry" />
        </mxCell>
        <mxCell id="hkL5dqAmk8bhZtvmWh6s-17" value="update_after_move()" style="shape=trapezoid;perimeter=trapezoidPerimeter;whiteSpace=wrap;html=1;fixedSize=1;" vertex="1" parent="1">
          <mxGeometry x="366.25" y="-630" width="172.5" height="70" as="geometry" />
        </mxCell>
        <mxCell id="hkL5dqAmk8bhZtvmWh6s-30" style="edgeStyle=orthogonalEdgeStyle;rounded=0;orthogonalLoop=1;jettySize=auto;html=1;entryX=0.5;entryY=0;entryDx=0;entryDy=0;" edge="1" parent="1" source="hkL5dqAmk8bhZtvmWh6s-23" target="hkL5dqAmk8bhZtvmWh6s-29">
          <mxGeometry relative="1" as="geometry">
            <Array as="points">
              <mxPoint x="307" y="-330" />
              <mxPoint x="459" y="-330" />
            </Array>
          </mxGeometry>
        </mxCell>
        <mxCell id="hkL5dqAmk8bhZtvmWh6s-23" value="draw_board_white()" style="shape=trapezoid;perimeter=trapezoidPerimeter;whiteSpace=wrap;html=1;fixedSize=1;" vertex="1" parent="1">
          <mxGeometry x="240" y="-430" width="133" height="60" as="geometry" />
        </mxCell>
        <mxCell id="hkL5dqAmk8bhZtvmWh6s-31" style="edgeStyle=orthogonalEdgeStyle;rounded=0;orthogonalLoop=1;jettySize=auto;html=1;entryX=0.5;entryY=0;entryDx=0;entryDy=0;" edge="1" parent="1" source="hkL5dqAmk8bhZtvmWh6s-24" target="hkL5dqAmk8bhZtvmWh6s-29">
          <mxGeometry relative="1" as="geometry">
            <Array as="points">
              <mxPoint x="608" y="-330" />
              <mxPoint x="459" y="-330" />
            </Array>
          </mxGeometry>
        </mxCell>
        <mxCell id="hkL5dqAmk8bhZtvmWh6s-24" value="draw_board_black()" style="shape=trapezoid;perimeter=trapezoidPerimeter;whiteSpace=wrap;html=1;fixedSize=1;" vertex="1" parent="1">
          <mxGeometry x="540" y="-430" width="136.75" height="60" as="geometry" />
        </mxCell>
        <mxCell id="hkL5dqAmk8bhZtvmWh6s-27" value="get_legal_move()" style="shape=trapezoid;perimeter=trapezoidPerimeter;whiteSpace=wrap;html=1;fixedSize=1;" vertex="1" parent="1">
          <mxGeometry x="392.5" y="-970" width="120" height="60" as="geometry" />
        </mxCell>
        <mxCell id="hkL5dqAmk8bhZtvmWh6s-33" style="edgeStyle=orthogonalEdgeStyle;rounded=0;orthogonalLoop=1;jettySize=auto;html=1;entryX=0.5;entryY=0;entryDx=0;entryDy=0;" edge="1" parent="1" source="hkL5dqAmk8bhZtvmWh6s-29" target="hkL5dqAmk8bhZtvmWh6s-32">
          <mxGeometry relative="1" as="geometry" />
        </mxCell>
        <mxCell id="hkL5dqAmk8bhZtvmWh6s-34" value="TRUE&lt;span style=&quot;white-space: pre;&quot;&gt;&#x9;&lt;/span&gt;" style="edgeLabel;html=1;align=center;verticalAlign=middle;resizable=0;points=[];" vertex="1" connectable="0" parent="hkL5dqAmk8bhZtvmWh6s-33">
          <mxGeometry x="0.1262" relative="1" as="geometry">
            <mxPoint as="offset" />
          </mxGeometry>
        </mxCell>
        <mxCell id="hkL5dqAmk8bhZtvmWh6s-35" style="edgeStyle=orthogonalEdgeStyle;rounded=0;orthogonalLoop=1;jettySize=auto;html=1;" edge="1" parent="1" source="hkL5dqAmk8bhZtvmWh6s-29">
          <mxGeometry relative="1" as="geometry">
            <mxPoint x="459.2550000000001" y="-160" as="targetPoint" />
          </mxGeometry>
        </mxCell>
        <mxCell id="hkL5dqAmk8bhZtvmWh6s-39" value="NO" style="edgeLabel;html=1;align=center;verticalAlign=middle;resizable=0;points=[];" vertex="1" connectable="0" parent="hkL5dqAmk8bhZtvmWh6s-35">
          <mxGeometry x="-0.4084" y="-2" relative="1" as="geometry">
            <mxPoint x="-1" y="2" as="offset" />
          </mxGeometry>
        </mxCell>
        <mxCell id="hkL5dqAmk8bhZtvmWh6s-40" value="FALSE" style="edgeLabel;html=1;align=center;verticalAlign=middle;resizable=0;points=[];" vertex="1" connectable="0" parent="hkL5dqAmk8bhZtvmWh6s-35">
          <mxGeometry x="-0.6047" y="-8" relative="1" as="geometry">
            <mxPoint x="-2" y="2" as="offset" />
          </mxGeometry>
        </mxCell>
        <mxCell id="hkL5dqAmk8bhZtvmWh6s-29" value="is_checkmate()" style="rhombus;whiteSpace=wrap;html=1;" vertex="1" parent="1">
          <mxGeometry x="388.88" y="-310" width="140.75" height="120" as="geometry" />
        </mxCell>
        <mxCell id="hkL5dqAmk8bhZtvmWh6s-32" value="STOP" style="ellipse;whiteSpace=wrap;html=1;" vertex="1" parent="1">
          <mxGeometry x="140" y="-210" width="120" height="80" as="geometry" />
        </mxCell>
        <mxCell id="hkL5dqAmk8bhZtvmWh6s-37" style="edgeStyle=orthogonalEdgeStyle;rounded=0;orthogonalLoop=1;jettySize=auto;html=1;entryX=1;entryY=0.5;entryDx=0;entryDy=0;" edge="1" parent="1" source="hkL5dqAmk8bhZtvmWh6s-36" target="hkL5dqAmk8bhZtvmWh6s-32">
          <mxGeometry relative="1" as="geometry">
            <Array as="points">
              <mxPoint x="290" y="-100" />
              <mxPoint x="290" y="-170" />
            </Array>
          </mxGeometry>
        </mxCell>
        <mxCell id="hkL5dqAmk8bhZtvmWh6s-41" value="Text" style="edgeLabel;html=1;align=center;verticalAlign=middle;resizable=0;points=[];" vertex="1" connectable="0" parent="hkL5dqAmk8bhZtvmWh6s-37">
          <mxGeometry x="-0.4481" relative="1" as="geometry">
            <mxPoint as="offset" />
          </mxGeometry>
        </mxCell>
        <mxCell id="hkL5dqAmk8bhZtvmWh6s-42" value="Text" style="edgeLabel;html=1;align=center;verticalAlign=middle;resizable=0;points=[];" vertex="1" connectable="0" parent="hkL5dqAmk8bhZtvmWh6s-37">
          <mxGeometry x="-0.4079" y="3" relative="1" as="geometry">
            <mxPoint as="offset" />
          </mxGeometry>
        </mxCell>
        <mxCell id="hkL5dqAmk8bhZtvmWh6s-43" value="Text" style="edgeLabel;html=1;align=center;verticalAlign=middle;resizable=0;points=[];" vertex="1" connectable="0" parent="hkL5dqAmk8bhZtvmWh6s-37">
          <mxGeometry x="-0.4381" y="3" relative="1" as="geometry">
            <mxPoint as="offset" />
          </mxGeometry>
        </mxCell>
        <mxCell id="hkL5dqAmk8bhZtvmWh6s-44" value="Text" style="edgeLabel;html=1;align=center;verticalAlign=middle;resizable=0;points=[];" vertex="1" connectable="0" parent="hkL5dqAmk8bhZtvmWh6s-37">
          <mxGeometry x="-0.4381" y="3" relative="1" as="geometry">
            <mxPoint as="offset" />
          </mxGeometry>
        </mxCell>
        <mxCell id="hkL5dqAmk8bhZtvmWh6s-45" value="TRUE" style="edgeLabel;html=1;align=center;verticalAlign=middle;resizable=0;points=[];" vertex="1" connectable="0" parent="hkL5dqAmk8bhZtvmWh6s-37">
          <mxGeometry x="-0.4381" y="3" relative="1" as="geometry">
            <mxPoint as="offset" />
          </mxGeometry>
        </mxCell>
        <mxCell id="hkL5dqAmk8bhZtvmWh6s-46" style="edgeStyle=orthogonalEdgeStyle;rounded=0;orthogonalLoop=1;jettySize=auto;html=1;" edge="1" parent="1" source="hkL5dqAmk8bhZtvmWh6s-36">
          <mxGeometry relative="1" as="geometry">
            <mxPoint x="459.2550000000001" y="30" as="targetPoint" />
          </mxGeometry>
        </mxCell>
        <mxCell id="hkL5dqAmk8bhZtvmWh6s-49" value="FALSE" style="edgeLabel;html=1;align=center;verticalAlign=middle;resizable=0;points=[];" vertex="1" connectable="0" parent="hkL5dqAmk8bhZtvmWh6s-46">
          <mxGeometry x="-0.4602" y="2" relative="1" as="geometry">
            <mxPoint as="offset" />
          </mxGeometry>
        </mxCell>
        <mxCell id="hkL5dqAmk8bhZtvmWh6s-36" value="is_stalemate()" style="rhombus;whiteSpace=wrap;html=1;" vertex="1" parent="1">
          <mxGeometry x="388.88" y="-160" width="140.75" height="120" as="geometry" />
        </mxCell>
        <mxCell id="hkL5dqAmk8bhZtvmWh6s-50" style="edgeStyle=orthogonalEdgeStyle;rounded=0;orthogonalLoop=1;jettySize=auto;html=1;entryX=1;entryY=1;entryDx=0;entryDy=0;" edge="1" parent="1" source="hkL5dqAmk8bhZtvmWh6s-48" target="hkL5dqAmk8bhZtvmWh6s-32">
          <mxGeometry relative="1" as="geometry" />
        </mxCell>
        <mxCell id="hkL5dqAmk8bhZtvmWh6s-51" value="TRUE" style="edgeLabel;html=1;align=center;verticalAlign=middle;resizable=0;points=[];" vertex="1" connectable="0" parent="hkL5dqAmk8bhZtvmWh6s-50">
          <mxGeometry x="-0.7045" y="4" relative="1" as="geometry">
            <mxPoint as="offset" />
          </mxGeometry>
        </mxCell>
        <mxCell id="hkL5dqAmk8bhZtvmWh6s-53" style="edgeStyle=orthogonalEdgeStyle;rounded=0;orthogonalLoop=1;jettySize=auto;html=1;" edge="1" parent="1" source="hkL5dqAmk8bhZtvmWh6s-48">
          <mxGeometry relative="1" as="geometry">
            <mxPoint x="459.2550000000001" y="230" as="targetPoint" />
          </mxGeometry>
        </mxCell>
        <mxCell id="hkL5dqAmk8bhZtvmWh6s-48" value="is_threefold_draw()" style="rhombus;whiteSpace=wrap;html=1;" vertex="1" parent="1">
          <mxGeometry x="388.88" y="30" width="140.75" height="120" as="geometry" />
        </mxCell>
        <mxCell id="hkL5dqAmk8bhZtvmWh6s-55" style="edgeStyle=orthogonalEdgeStyle;rounded=0;orthogonalLoop=1;jettySize=auto;html=1;entryX=1;entryY=1;entryDx=0;entryDy=0;" edge="1" parent="1" source="hkL5dqAmk8bhZtvmWh6s-54" target="hkL5dqAmk8bhZtvmWh6s-32">
          <mxGeometry relative="1" as="geometry" />
        </mxCell>
        <mxCell id="hkL5dqAmk8bhZtvmWh6s-56" value="TRUE" style="edgeLabel;html=1;align=center;verticalAlign=middle;resizable=0;points=[];" vertex="1" connectable="0" parent="hkL5dqAmk8bhZtvmWh6s-55">
          <mxGeometry x="-0.8344" y="-1" relative="1" as="geometry">
            <mxPoint as="offset" />
          </mxGeometry>
        </mxCell>
        <mxCell id="hkL5dqAmk8bhZtvmWh6s-57" style="edgeStyle=orthogonalEdgeStyle;rounded=0;orthogonalLoop=1;jettySize=auto;html=1;" edge="1" parent="1" source="hkL5dqAmk8bhZtvmWh6s-54" target="hkL5dqAmk8bhZtvmWh6s-58">
          <mxGeometry relative="1" as="geometry">
            <mxPoint x="459.2449999999999" y="420" as="targetPoint" />
          </mxGeometry>
        </mxCell>
        <mxCell id="hkL5dqAmk8bhZtvmWh6s-54" value="is_50move_draw()" style="rhombus;whiteSpace=wrap;html=1;" vertex="1" parent="1">
          <mxGeometry x="388.87" y="230" width="140.75" height="120" as="geometry" />
        </mxCell>
        <mxCell id="hkL5dqAmk8bhZtvmWh6s-60" style="edgeStyle=orthogonalEdgeStyle;rounded=0;orthogonalLoop=1;jettySize=auto;html=1;" edge="1" parent="1" source="hkL5dqAmk8bhZtvmWh6s-58">
          <mxGeometry relative="1" as="geometry">
            <mxPoint x="750" y="-930" as="targetPoint" />
          </mxGeometry>
        </mxCell>
        <mxCell id="hkL5dqAmk8bhZtvmWh6s-58" value="side_to_move = 1 - side_to_move; " style="rounded=0;whiteSpace=wrap;html=1;" vertex="1" parent="1">
          <mxGeometry x="399.2449999999999" y="390" width="120" height="60" as="geometry" />
        </mxCell>
        <mxCell id="hkL5dqAmk8bhZtvmWh6s-70" value="" style="endArrow=none;html=1;rounded=0;entryX=0.954;entryY=0.633;entryDx=0;entryDy=0;entryPerimeter=0;" edge="1" parent="1" target="hkL5dqAmk8bhZtvmWh6s-27">
          <mxGeometry width="50" height="50" relative="1" as="geometry">
            <mxPoint x="750" y="-930" as="sourcePoint" />
            <mxPoint x="430" y="-800" as="targetPoint" />
          </mxGeometry>
        </mxCell>
      </root>
    </mxGraphModel>
  </diagram>
</mxfile>
